<svg width="566" height="351" viewBox="0 0 566 351" fill="none" xmlns="http://www.w3.org/2000/svg">
<rect width="566" height="351" rx="10" fill="white"/>
<path d="M546.477 232.532C546.477 231.716 546.077 230.997 545.468 230.543C546.077 230.088 546.477 229.369 546.477 228.554C546.477 227.196 545.382 226.092 544.029 226.069V221.669C544.029 220.044 542.707 218.722 541.081 218.722H529.454C527.829 218.722 526.506 220.044 526.506 221.669V226.065H526.438C525.487 226.065 524.593 226.436 523.921 227.108L521.387 229.642V229.013C521.387 228.736 521.163 228.513 520.887 228.513H515.156C514.879 228.513 514.656 228.736 514.656 229.013V230.349H507C506.724 230.349 506.5 230.572 506.5 230.849C506.5 231.125 506.724 231.349 507 231.349H514.656V241.976H507C506.724 241.976 506.5 242.199 506.5 242.476C506.5 242.752 506.724 242.976 507 242.976H514.656V243.7C514.656 243.976 514.879 244.2 515.156 244.2H517.089C516.858 244.649 516.715 245.212 516.715 245.841C516.715 246.922 517.12 247.825 517.713 248.238C517.357 248.946 517.603 250.045 518.399 250.982C519.023 251.715 519.801 252.134 520.473 252.168C520.507 252.421 520.602 252.684 520.766 252.941C521.061 253.406 521.544 253.832 522.126 254.139C522.677 254.43 523.267 254.588 523.796 254.588C523.825 254.588 523.854 254.588 523.883 254.587C524.116 254.579 524.323 254.528 524.513 254.459C524.659 254.708 524.887 254.933 525.19 255.112C525.665 255.393 526.289 255.553 526.947 255.562C526.968 255.563 526.989 255.563 527.01 255.563C527.645 255.563 528.248 255.422 528.715 255.164C529.128 254.936 529.412 254.623 529.539 254.273C529.593 254.279 529.647 254.286 529.703 254.286C529.92 254.286 530.153 254.243 530.391 254.157C530.909 253.969 531.429 253.59 531.855 253.089C532.477 252.358 532.764 251.526 532.692 250.858C533.462 250.592 534.022 249.562 534.022 248.289C534.022 247.66 533.88 247.096 533.649 246.647H541.081C542.707 246.647 544.029 245.325 544.029 243.7V242.971C545.382 242.949 546.477 241.845 546.477 240.487C546.477 239.671 546.077 238.952 545.468 238.498C546.077 238.044 546.477 237.325 546.477 236.509C546.477 235.694 546.077 234.975 545.468 234.521C546.077 234.066 546.477 233.347 546.477 232.532ZM545.477 228.554C545.477 229.36 544.83 230.016 544.029 230.038C544.015 230.039 544.002 230.042 543.988 230.042H543.029H541.581H540.581H538.684C537.864 230.042 537.196 229.375 537.196 228.554C537.196 227.733 537.864 227.065 538.684 227.065H540.581H541.581H543.029H543.988C544.002 227.065 544.015 227.069 544.029 227.069C544.83 227.091 545.477 227.747 545.477 228.554ZM536.767 230.121C535.681 230.388 534.87 231.364 534.87 232.532C534.87 233.699 535.681 234.675 536.767 234.942C536.416 235.371 536.196 235.912 536.196 236.509C536.196 237.677 537.007 238.652 538.093 238.919C537.741 239.349 537.521 239.89 537.521 240.487C537.521 240.796 537.585 241.09 537.689 241.364H530.066C530.004 241.364 529.954 241.313 529.954 241.252V231.349H530.678C532.641 231.349 534.238 229.752 534.238 227.789C534.238 226.838 533.464 226.065 532.514 226.065H529.954V222.894C529.954 222.832 530.004 222.781 530.066 222.781H540.469C540.531 222.781 540.581 222.832 540.581 222.894V226.065H538.684C537.312 226.065 536.196 227.182 536.196 228.554C536.196 229.151 536.416 229.692 536.767 230.121ZM527.506 221.669C527.506 220.595 528.38 219.722 529.454 219.722H541.081C542.155 219.722 543.029 220.595 543.029 221.669V226.065H541.581V222.894C541.581 222.28 541.082 221.781 540.469 221.781H530.066C529.453 221.781 528.954 222.28 528.954 222.894V226.065H527.506V221.669V221.669ZM521.387 231.056L524.628 227.815C525.111 227.331 525.754 227.065 526.438 227.065H526.506H527.506H528.954H529.954H532.514C532.913 227.065 533.238 227.39 533.238 227.789C533.238 229.2 532.089 230.349 530.678 230.349H529.954H528.954H527.506H527.006C526.73 230.349 526.506 230.572 526.506 230.849V241.976H521.387V231.056ZM517.715 245.841C517.715 244.854 518.151 244.2 518.439 244.2C518.727 244.2 519.163 244.854 519.163 245.841C519.163 246.828 518.727 247.483 518.439 247.483C518.151 247.483 517.715 246.828 517.715 245.841ZM520.776 251.116C520.556 251.302 519.8 251.085 519.161 250.334C518.521 249.583 518.429 248.801 518.649 248.614C518.698 248.573 518.774 248.551 518.869 248.551C519.2 248.551 519.767 248.812 520.264 249.396C520.903 250.148 520.995 250.93 520.776 251.116ZM524.383 253.381C524.321 253.5 524.116 253.579 523.85 253.587C523.472 253.596 523.017 253.479 522.593 253.254C522.169 253.031 521.811 252.721 521.61 252.405C521.467 252.18 521.417 251.966 521.479 251.848C521.542 251.73 521.746 251.651 522.013 251.642C522.03 251.642 522.048 251.641 522.066 251.641C522.43 251.641 522.865 251.761 523.269 251.975C524.142 252.435 524.518 253.126 524.383 253.381ZM528.232 254.289C527.904 254.47 527.448 254.583 526.961 254.562C526.482 254.556 526.022 254.442 525.699 254.251C525.47 254.116 525.328 253.949 525.33 253.815C525.332 253.681 525.479 253.518 525.712 253.389C526.029 253.214 526.472 253.115 526.935 253.115C526.95 253.115 526.967 253.115 526.982 253.115C527.462 253.122 527.922 253.235 528.244 253.426C528.474 253.562 528.615 253.729 528.614 253.863C528.612 253.997 528.465 254.16 528.232 254.289ZM529.229 250.856C528.82 251.337 528.541 251.884 528.429 252.406C528.009 252.227 527.515 252.123 526.997 252.115C526.338 252.101 525.711 252.247 525.229 252.514C525.223 252.517 525.218 252.52 525.213 252.523C524.953 251.986 524.441 251.462 523.736 251.09C523.155 250.783 522.534 250.624 521.979 250.643C521.939 250.644 521.905 250.655 521.866 250.658C521.832 250.055 521.551 249.367 521.026 248.749C520.611 248.261 520.128 247.92 519.654 247.73C519.969 247.254 520.163 246.589 520.163 245.841C520.163 245.212 520.021 244.649 519.789 244.2H520.887C521.163 244.2 521.387 243.976 521.387 243.7V242.976H526.506V243.7C526.506 245.325 527.829 246.647 529.454 246.647H530.948C530.717 247.096 530.574 247.66 530.574 248.289C530.574 248.831 530.678 249.329 530.854 249.744C530.301 249.9 529.717 250.281 529.229 250.856ZM531.094 252.441C530.783 252.807 530.403 253.089 530.051 253.216C529.8 253.308 529.581 253.31 529.479 253.223C529.375 253.135 529.344 252.924 529.393 252.658C529.462 252.29 529.68 251.869 529.991 251.503C530.488 250.919 531.055 250.658 531.386 250.658C531.481 250.658 531.557 250.68 531.606 250.721C531.825 250.908 531.733 251.689 531.094 252.441ZM532.298 249.931C532.01 249.931 531.574 249.276 531.574 248.289C531.574 247.302 532.01 246.647 532.298 246.647C532.586 246.647 533.022 247.302 533.022 248.289C533.022 249.276 532.586 249.931 532.298 249.931ZM543.029 243.7C543.029 244.774 542.155 245.647 541.081 245.647H532.298H529.454C528.38 245.647 527.506 244.774 527.506 243.7V242.476V231.349H528.954V241.252C528.954 241.865 529.453 242.364 530.066 242.364H538.394C538.83 242.74 539.391 242.976 540.01 242.976H543.029V243.7ZM545.477 240.487C545.477 241.294 544.83 241.949 544.029 241.971C544.015 241.972 544.002 241.976 543.988 241.976H543.029H541.306H540.01C539.518 241.976 539.085 241.733 538.813 241.364C538.632 241.117 538.521 240.816 538.521 240.487C538.521 239.666 539.189 238.998 540.01 238.998H540.581H541.581H543.029H543.988C544.002 238.998 544.015 239.002 544.029 239.002C544.83 239.025 545.477 239.68 545.477 240.487ZM545.477 236.509C545.477 237.316 544.83 237.972 544.029 237.994C544.015 237.994 544.002 237.998 543.988 237.998H543.029H541.581H540.581H540.01H538.684C537.864 237.998 537.196 237.33 537.196 236.509C537.196 235.688 537.864 235.021 538.684 235.021H540.581H541.581H543.029H543.988C544.002 235.021 544.015 235.024 544.029 235.025C544.83 235.047 545.477 235.703 545.477 236.509ZM544.029 234.016C544.015 234.017 544.002 234.021 543.988 234.021H543.029H541.581H540.581H538.684H537.358C536.538 234.021 535.87 233.353 535.87 232.532C535.87 231.71 536.538 231.042 537.358 231.042H538.684H540.581H541.581H543.029H543.988C544.002 231.042 544.015 231.046 544.029 231.047C544.83 231.069 545.477 231.725 545.477 232.532C545.477 233.339 544.83 233.994 544.029 234.016Z" fill="black" fill-opacity="0.2"/>
<path d="M535.574 243.088C535.046 243.088 534.617 243.516 534.617 244.044C534.617 244.572 535.046 245 535.574 245C536.102 245 536.53 244.572 536.53 244.044C536.53 243.516 536.102 243.088 535.574 243.088Z" fill="black" fill-opacity="0.2"/>
<path d="M180.809 42.534L179.782 33.8036C180.299 33.4995 180.65 32.9433 180.65 32.3C180.65 31.3335 179.867 30.55 178.9 30.55C178.66 30.55 178.431 30.5987 178.223 30.6863L172.764 25.4804C172.832 25.2937 172.875 25.0949 172.875 24.8847C172.875 23.9182 172.091 23.1347 171.125 23.1347C170.624 23.1347 170.176 23.3475 169.857 23.6843L163.138 21.2662C163.076 20.356 162.326 19.6346 161.4 19.6346C160.666 19.6346 160.04 20.0876 159.78 20.7284L152.353 20.9298C152.038 20.4629 151.505 20.1555 150.9 20.1555C149.934 20.1555 149.15 20.9391 149.15 21.9055C149.15 21.918 149.153 21.9295 149.154 21.9419L142.784 25.9533C142.503 25.7622 142.165 25.65 141.8 25.65C140.834 25.65 140.05 26.4335 140.05 27.4C140.05 27.4627 140.062 27.5222 140.068 27.5833L132.917 31.6699C132.612 31.4117 132.223 31.25 131.792 31.25C130.825 31.25 130.042 32.0335 130.042 33C130.042 33.3789 130.165 33.7273 130.37 34.0137L126.545 41.0646C126.496 41.0605 126.45 41.05 126.4 41.05C125.434 41.05 124.65 41.8335 124.65 42.8C124.65 43.7664 125.434 44.55 126.4 44.55C126.532 44.55 126.659 44.5328 126.782 44.5052L132.592 52.427C132.442 52.6848 132.35 52.9804 132.35 53.3C132.35 54.2664 133.134 55.05 134.1 55.05C134.817 55.05 135.432 54.6175 135.702 54H146.498C146.768 54.6175 147.383 55.05 148.1 55.05C148.288 55.05 148.466 55.0125 148.637 54.9574L163.314 71.4695C163.211 71.6924 163.15 71.9383 163.15 72.2C163.15 73.1664 163.934 73.95 164.9 73.95C165.867 73.95 166.65 73.1664 166.65 72.2C166.65 71.4827 166.218 70.8679 165.6 70.5977V61.2022C166.218 60.932 166.65 60.3172 166.65 59.6C166.65 59.5058 166.637 59.4153 166.622 59.3252L173.73 54.7558C174.008 54.9412 174.341 55.05 174.7 55.05C175.667 55.05 176.45 54.2664 176.45 53.3C176.45 52.9287 176.333 52.5858 176.136 52.3026L180.06 45.9257C180.139 45.9367 180.218 45.95 180.3 45.95C181.267 45.95 182.05 45.1664 182.05 44.2C182.05 43.4117 181.525 42.753 180.809 42.534ZM179.043 42.9862L169.79 39.5493C169.787 39.4997 169.782 39.4508 169.775 39.4023L177.977 33.7811C178.105 33.861 178.244 33.921 178.391 33.9659L179.418 42.6963C179.281 42.7772 179.153 42.8721 179.043 42.9862ZM163.646 58.3821L149.84 53.2049C149.836 53.1301 149.831 53.0555 149.818 52.9836L158.789 46.9194C159.03 47.0722 159.311 47.1636 159.612 47.1827L163.693 58.3377C163.677 58.3525 163.661 58.3667 163.646 58.3821ZM144.509 43.9503C144.567 43.8847 144.622 43.8177 144.67 43.744L157.863 45.8552L149.033 51.8242C148.763 51.6528 148.444 51.55 148.1 51.55C148.086 51.55 148.072 51.5539 148.058 51.5542L144.509 43.9503ZM142.898 28.7524L155.464 33.1357C155.469 33.2064 155.471 33.2781 155.485 33.3461L144.107 41.3103C143.997 41.2427 143.878 41.1895 143.753 41.1476L142.642 28.9253C142.733 28.875 142.818 28.8176 142.898 28.7524ZM170.096 26.2943C170.102 26.2988 170.107 26.3043 170.114 26.3087L167.692 37.9372C167.457 37.9861 167.24 38.0835 167.05 38.2163L158.926 33.237C158.937 33.1587 158.95 33.0811 158.95 33C158.95 32.9321 158.938 32.8678 158.93 32.8019L170.096 26.2943ZM156.293 34.4896C156.457 34.5902 156.637 34.6679 156.832 34.7096L158.718 44.014C158.532 44.1443 158.375 44.3091 158.252 44.4997L145.018 42.382L156.293 34.4896ZM160.645 43.9625C160.476 43.8572 160.29 43.777 160.09 43.734L158.206 34.4374L166.324 39.413C166.313 39.4912 166.3 39.5688 166.3 39.65C166.3 39.7889 166.32 39.9224 166.351 40.052L160.645 43.9625ZM161.439 45.1156L167.197 41.1692C167.45 41.3118 167.739 41.4 168.05 41.4C168.074 41.4 168.096 41.3938 168.12 41.3929L173.136 51.6891L161.46 45.5646C161.463 45.5239 161.472 45.4851 161.472 45.4437C161.472 45.3313 161.459 45.2221 161.439 45.1156ZM177.183 32.6281L169.069 38.1891L171.483 26.5975C171.594 26.5745 171.7 26.5411 171.802 26.4983L177.261 31.7043C177.193 31.891 177.15 32.0898 177.15 32.3C177.15 32.4124 177.163 32.5216 177.183 32.6281ZM169.395 25.0827L158.495 31.4351L161.425 23.1321C161.916 23.1249 162.355 22.916 162.668 22.585L169.387 25.0032C169.389 25.0299 169.392 25.0563 169.395 25.0827ZM160.133 22.5861L157.07 31.263C157.059 31.2639 157.048 31.2653 157.037 31.2664L152.364 22.8611C152.47 22.6989 152.547 22.5172 152.594 22.3236L159.821 22.1277C159.901 22.2971 160.006 22.4518 160.133 22.5861ZM150.9 23.6555C150.998 23.6555 151.093 23.6422 151.187 23.6266L155.695 31.7335L143.541 27.4935C143.542 27.4619 143.55 27.432 143.55 27.4C143.55 27.3114 143.537 27.2265 143.524 27.1415L149.754 23.2183C150.062 23.4871 150.459 23.6555 150.9 23.6555ZM141.247 29.0523L142.344 41.1211L133.498 33.3802C133.525 33.2574 133.542 33.1309 133.542 33C133.542 32.9757 133.536 32.9532 133.535 32.9292L140.76 28.8004C140.907 28.9094 141.07 28.9931 141.247 29.0523ZM131.792 34.75C132.11 34.75 132.405 34.6584 132.662 34.5096L141.337 42.1H128.002C127.944 41.9661 127.865 41.8448 127.776 41.7309L131.575 34.7281C131.647 34.7371 131.717 34.75 131.792 34.75ZM128.002 43.5H141.598C141.605 43.5171 141.616 43.5322 141.624 43.5491L134.616 51.6361C134.452 51.5852 134.281 51.55 134.1 51.55C133.968 51.55 133.841 51.5671 133.718 51.5947L127.908 43.673C127.941 43.6163 127.976 43.5605 128.002 43.5ZM135.676 52.5508L142.684 44.4638C142.848 44.5147 143.019 44.55 143.2 44.55C143.214 44.55 143.228 44.5461 143.242 44.5457L146.791 52.1497C146.672 52.2843 146.571 52.4335 146.498 52.6H135.702C135.695 52.5828 135.684 52.5677 135.676 52.5508ZM163.16 59.6952C163.197 60.3705 163.611 60.9443 164.2 61.2022V70.3589L150.502 54.9485L163.16 59.6952ZM165.01 57.861L161.002 46.9061L172.962 53.1791C172.959 53.2198 172.95 53.2586 172.95 53.3C172.95 53.3941 172.963 53.4847 172.978 53.5748L165.87 58.1441C165.621 57.9782 165.326 57.8809 165.01 57.861ZM174.7 51.55C174.676 51.55 174.654 51.5561 174.63 51.5571L169.445 40.9151L178.56 44.3006C178.579 44.6326 178.686 44.9404 178.864 45.1973L174.94 51.5742C174.861 51.5632 174.782 51.55 174.7 51.55Z" fill="black" fill-opacity="0.1"/>
<g clip-path="url(#clip0_4_743)">
<path d="M450.625 60.2916H436.042V70.7082H450.625V60.2916Z" fill="black" fill-opacity="0.1"/>
<path d="M455.119 57.8817C448.611 51.3731 438.056 51.3731 431.549 57.8817C431.444 57.9867 431.356 58.1012 431.254 58.2087C428.205 61.4212 426.667 65.5397 426.667 69.6673C423.386 69.6673 420.112 70.6398 417.292 72.5633C416.444 73.1423 415.634 73.7973 414.882 74.5488C408.373 81.0584 408.373 91.61 414.882 98.1196C421.39 104.627 431.945 104.629 438.453 98.1196C438.89 97.6821 439.293 97.2226 439.672 96.7511C442.109 93.715 443.333 90.025 443.334 86.334C444.381 86.334 445.427 86.234 446.459 86.0369C449.632 85.4349 452.663 83.9089 455.119 81.4529C461.627 74.9423 461.627 64.3892 455.119 57.8817ZM422.032 76.9589C423.784 76.9589 425.21 78.3834 425.21 80.1394C425.21 81.8949 423.783 83.3174 422.032 83.3174C420.271 83.3174 418.855 81.8944 418.855 80.1394C418.855 78.3829 420.271 76.9589 422.032 76.9589ZM441.098 85.6604L436.406 90.352C436.504 90.555 436.563 90.7805 436.563 91.021C436.563 91.7425 436.072 92.3435 435.407 92.523L434.48 92.5835H431.355C431.355 92.5835 431.017 92.5835 430.834 92.5835C429.971 92.5835 428.913 91.31 428.913 91.31L427.188 89.585V96.7506H415.73V88.4175C415.73 86.3335 417.831 84.2504 419.896 84.2504C419.896 84.2504 424.488 84.2504 425.625 84.2504C426.321 84.2504 427.074 84.4089 427.609 84.9624C428.492 85.8759 431.355 89.4585 431.355 89.4585H435C435.242 89.4585 435.466 89.518 435.67 89.6155L440.361 84.9234C440.565 84.7199 440.894 84.7199 441.098 84.9234C441.301 85.1274 441.301 85.4569 441.098 85.6604ZM452.709 72.7918C452.709 73.3673 452.243 73.8333 451.667 73.8333H445.417V75.9168C445.417 77.0684 447.39 78.0004 448.542 78.0004H450.625C451.202 78.0004 451.667 78.4664 451.667 79.0424C451.667 79.6174 451.202 80.0834 450.625 80.0834H443.334H436.042C435.466 80.0834 435 79.6174 435 79.0424C435 78.4664 435.466 78.0004 436.042 78.0004H438.125C439.277 78.0004 441.25 77.0684 441.25 75.9168V73.8333H435C434.425 73.8333 433.959 73.3673 433.959 72.7918V59.2502C433.959 58.6747 434.425 58.2087 435 58.2087H451.667C452.243 58.2087 452.709 58.6747 452.709 59.2502V72.7918Z" fill="black" fill-opacity="0.1"/>
</g>
<g clip-path="url(#clip1_4_743)">
<path d="M491.152 251H451.331C447.655 251 444.665 253.99 444.665 257.667V282.113C444.665 285.789 447.655 288.779 451.331 288.779H452.729C451.98 291.049 450.527 294.226 447.967 295.762C447.088 296.287 446.682 297.347 446.986 298.324C447.275 299.259 448.138 299.89 449.109 299.89C449.152 299.89 449.195 299.888 449.241 299.886C449.863 299.849 463.895 298.898 468.414 288.779H491.45C491.588 288.779 491.723 288.766 491.853 288.742C495.201 288.39 497.818 285.552 497.818 282.113V257.668C497.818 253.995 494.829 251.004 491.152 251ZM493.375 282.113C493.375 283.339 492.379 284.335 491.152 284.335H466.89C465.923 284.335 465.068 284.958 464.774 285.878C463.3 290.468 458.99 292.878 455.243 294.13C457.172 290.653 457.755 287.138 457.793 286.906C457.895 286.264 457.711 285.609 457.289 285.114C456.866 284.618 456.25 284.335 455.599 284.335H451.332C450.106 284.335 449.11 283.339 449.11 282.113V257.667C449.11 256.44 450.106 255.444 451.332 255.444L491.153 255.447C492.38 255.447 493.376 256.443 493.376 257.669V282.113H493.375Z" fill="black" fill-opacity="0.2"/>
<path d="M427.999 309.89C434.135 309.89 439.11 304.915 439.11 298.779C439.11 292.643 434.135 287.668 427.999 287.668C421.863 287.668 416.888 292.643 416.888 298.779C416.888 304.915 421.863 309.89 427.999 309.89Z" fill="black" fill-opacity="0.2"/>
<path d="M480.22 338.779C480.22 335.71 477.733 333.222 474.664 333.222H474.54L472.349 325.918C471.997 324.743 470.761 324.079 469.582 324.426C468.406 324.78 467.739 326.019 468.091 327.194L469.899 333.222H459.664L447.999 317.667C446.95 316.268 445.304 315.444 443.554 315.444H417.745L409.11 301.63V278.78C409.11 275.711 406.623 273.224 403.555 273.224C400.486 273.224 398 275.71 398 278.78V303.224C398 304.265 398.293 305.286 398.844 306.167L407.999 327.806V338.78V351H445.776V333.223L452.442 342.111C453.492 343.511 455.137 344.335 456.887 344.335H473.233L474.758 349.416C475.047 350.379 475.93 351 476.887 351C477.098 351 477.313 350.97 477.525 350.906C478.701 350.553 479.368 349.314 479.016 348.139L477.616 343.469C479.175 342.485 480.22 340.76 480.22 338.779Z" fill="black" fill-opacity="0.2"/>
</g>
<g clip-path="url(#clip2_4_743)">
<path d="M154.268 105.762C154.268 105.76 154.267 105.76 154.266 105.758L152.658 101.84C152.558 97.4504 148.866 93.9066 144.333 93.9066C139.739 93.907 136 97.547 136 102.02C136 104.283 136.959 106.331 138.5 107.804V115H148.5V112.178C150.797 112.178 152.25 110.747 152.25 108.51V106.887H153.5C153.96 106.887 154.333 106.524 154.333 106.076C154.333 105.976 154.268 105.762 154.268 105.762ZM141 105.265C140.31 105.265 139.75 104.72 139.75 104.048C139.75 103.376 140.31 102.832 141 102.832C141.69 102.832 142.25 103.376 142.25 104.048C142.25 104.72 141.69 105.265 141 105.265ZM141 102.02C140.31 102.02 139.75 101.475 139.75 100.803C139.75 100.131 140.31 99.586 141 99.586C141.69 99.586 142.25 100.131 142.25 100.803C142.25 101.475 141.69 102.02 141 102.02ZM144.333 105.265C143.643 105.265 143.083 104.72 143.083 104.048C143.083 103.376 143.643 102.832 144.333 102.832C145.023 102.832 145.583 103.376 145.583 104.048C145.583 104.72 145.024 105.265 144.333 105.265ZM144.333 102.02C143.643 102.02 143.083 101.475 143.083 100.803C143.083 100.131 143.643 99.586 144.333 99.586C145.023 99.586 145.583 100.131 145.583 100.803C145.583 101.475 145.024 102.02 144.333 102.02ZM144.333 98.7749C143.643 98.7749 143.083 98.2297 143.083 97.5579C143.083 96.8861 143.643 96.3409 144.333 96.3409C145.023 96.3409 145.583 96.8861 145.583 97.5579C145.583 98.2297 145.024 98.7749 144.333 98.7749ZM147.667 105.265C146.977 105.265 146.417 104.72 146.417 104.048C146.417 103.376 146.977 102.832 147.667 102.832C148.357 102.832 148.917 103.376 148.917 104.048C148.917 104.72 148.357 105.265 147.667 105.265ZM147.667 102.02C146.977 102.02 146.417 101.475 146.417 100.803C146.417 100.131 146.977 99.586 147.667 99.586C148.357 99.586 148.917 100.131 148.917 100.803C148.917 101.475 148.357 102.02 147.667 102.02Z" fill="black" fill-opacity="0.4"/>
</g>
<path d="M533.43 31.4385C533.335 31.1965 533.063 31.0784 532.822 31.1723C532.581 31.2667 532.462 31.5384 532.556 31.7794L532.727 32.2161C532.79 32.3772 532.931 32.4835 533.09 32.5088C533.17 32.5214 533.253 32.5137 533.334 32.4824C533.575 32.388 533.694 32.1163 533.6 31.8753L533.43 31.4385Z" fill="black" fill-opacity="0.8"/>
<path d="M535.134 35.8051C535.039 35.563 534.769 35.4445 534.527 35.5388C534.286 35.6332 534.167 35.9049 534.261 36.146L534.431 36.5827C534.494 36.7438 534.636 36.8501 534.795 36.8753C534.875 36.8879 534.958 36.8802 535.038 36.8489C535.279 36.7546 535.398 36.4828 535.305 36.2418L535.134 35.8051Z" fill="black" fill-opacity="0.8"/>
<path d="M537.84 45.3158C537.903 45.4769 538.045 45.5832 538.204 45.6084C538.283 45.621 538.367 45.6134 538.447 45.5821C538.688 45.4877 538.807 45.216 538.713 44.9749L538.543 44.5387C538.448 44.2966 538.175 44.1778 537.936 44.2724C537.694 44.3668 537.575 44.6385 537.669 44.8796L537.84 45.3158Z" fill="black" fill-opacity="0.8"/>
<path d="M535.891 39.0325C536.132 38.9381 536.251 38.6664 536.157 38.4253L535.986 37.9886C535.892 37.747 535.62 37.628 535.379 37.7224C535.138 37.8167 535.019 38.0885 535.113 38.3295L535.283 38.7662C535.347 38.9273 535.488 39.0336 535.647 39.0588C535.727 39.0714 535.81 39.0638 535.891 39.0325Z" fill="black" fill-opacity="0.8"/>
<path d="M538.692 47.4993C538.755 47.6604 538.897 47.7667 539.056 47.7919C539.135 47.8045 539.219 47.7968 539.299 47.7656C539.54 47.6712 539.659 47.3995 539.565 47.1584L539.395 46.7217C539.3 46.4796 539.029 46.3612 538.788 46.4555C538.547 46.5498 538.428 46.8216 538.522 47.0626L538.692 47.4993Z" fill="black" fill-opacity="0.8"/>
<path d="M539.544 49.6828C539.607 49.8439 539.749 49.9502 539.908 49.9754C539.988 49.988 540.071 49.9803 540.152 49.9491C540.393 49.8547 540.512 49.583 540.418 49.3419L540.247 48.9052C540.153 48.6636 539.881 48.5446 539.64 48.6389C539.399 48.7333 539.28 49.0051 539.374 49.2461L539.544 49.6828Z" fill="black" fill-opacity="0.8"/>
<path d="M536.135 40.9488C536.198 41.1098 536.34 41.2166 536.499 41.2418C536.578 41.2544 536.662 41.2468 536.742 41.2154C536.983 41.1216 537.103 40.8498 537.009 40.6088L536.839 40.1721C536.745 39.9312 536.473 39.8116 536.232 39.9055C535.99 39.9993 535.871 40.2711 535.965 40.5121L536.135 40.9488Z" fill="black" fill-opacity="0.8"/>
<path d="M536.987 43.1327C537.05 43.2938 537.192 43.4001 537.351 43.4253C537.431 43.4379 537.514 43.4302 537.595 43.399C537.836 43.3046 537.955 43.0329 537.861 42.7918L537.69 42.3551C537.596 42.113 537.324 41.9949 537.083 42.0889C536.842 42.1832 536.723 42.455 536.817 42.696L536.987 43.1327Z" fill="black" fill-opacity="0.8"/>
<path d="M534.282 33.622C534.187 33.3799 533.916 33.2614 533.675 33.3558C533.434 33.4501 533.315 33.7219 533.408 33.9629L533.579 34.3996C533.642 34.5607 533.784 34.667 533.943 34.6922C534.022 34.7048 534.106 34.6972 534.186 34.6659C534.427 34.5715 534.546 34.2998 534.452 34.0587L534.282 33.622Z" fill="black" fill-opacity="0.8"/>
<path d="M524.003 44.3409C524.044 44.085 523.869 43.8451 523.613 43.8046C523.357 43.7641 523.118 43.9383 523.077 44.1942L523.004 44.6572C522.963 44.9131 523.137 45.153 523.393 45.1935C523.649 45.2341 523.889 45.0598 523.93 44.8039L524.003 44.3409Z" fill="black" fill-opacity="0.8"/>
<path d="M524.37 42.026C524.41 41.7701 524.236 41.5302 523.98 41.4897C523.724 41.4492 523.484 41.6235 523.444 41.8794L523.37 42.3423C523.33 42.5982 523.504 42.8381 523.76 42.8786C524.016 42.9192 524.256 42.7449 524.296 42.489L524.37 42.026Z" fill="black" fill-opacity="0.8"/>
<path d="M523.247 46.1195C522.991 46.0789 522.751 46.2532 522.71 46.5091L522.637 46.9721C522.597 47.228 522.771 47.4679 523.027 47.5084C523.283 47.5489 523.523 47.3747 523.563 47.1188L523.636 46.6558C523.677 46.3999 523.503 46.16 523.247 46.1195Z" fill="black" fill-opacity="0.8"/>
<path d="M528.103 14.3123C528.359 14.3529 528.599 14.1786 528.639 13.9227L528.849 12.6007C528.889 12.3448 528.715 12.1049 528.459 12.0644C528.203 12.0238 527.963 12.1981 527.923 12.454L527.714 13.776C527.673 14.0319 527.847 14.2718 528.103 14.3123Z" fill="black" fill-opacity="0.8"/>
<path d="M531.259 15.4884C531.312 15.5209 531.37 15.5412 531.429 15.5504C531.611 15.5793 531.801 15.4982 531.903 15.3303L532.597 14.1856C532.731 13.9645 532.66 13.6761 532.439 13.5418C532.219 13.4079 531.929 13.4783 531.795 13.6999L531.101 14.8446C530.967 15.0657 531.037 15.3541 531.259 15.4884Z" fill="black" fill-opacity="0.8"/>
<path d="M533.714 17.5165C533.849 17.5378 533.991 17.501 534.1 17.4038L535.1 16.5137C535.293 16.3414 535.31 16.0451 535.138 15.852C534.966 15.6578 534.669 15.6419 534.476 15.8134L533.477 16.7035C533.283 16.8758 533.266 17.1721 533.438 17.3652C533.513 17.4494 533.611 17.5002 533.714 17.5165Z" fill="black" fill-opacity="0.8"/>
<path d="M524.199 14.1102C524.244 14.3013 524.4 14.4372 524.582 14.4661C524.641 14.4753 524.702 14.4739 524.763 14.4595C525.015 14.4002 525.171 14.1483 525.112 13.896L524.806 12.593C524.747 12.3403 524.495 12.184 524.243 12.2438C523.991 12.303 523.834 12.5549 523.894 12.8072L524.199 14.1102Z" fill="black" fill-opacity="0.8"/>
<path d="M521.47 15.4034C521.543 15.5295 521.667 15.6085 521.801 15.6297C521.904 15.6461 522.014 15.6282 522.111 15.5712C522.335 15.4403 522.409 15.1532 522.279 14.93L521.603 13.7745C521.472 13.5513 521.185 13.4752 520.961 13.6066C520.738 13.7376 520.663 14.0247 520.793 14.2479L521.47 15.4034Z" fill="black" fill-opacity="0.8"/>
<path d="M533.316 27.7212C533.879 26.8213 534.249 25.8333 534.415 24.7839C534.754 22.6431 534.218 20.5134 532.906 18.7872C531.595 17.0621 529.684 15.9781 527.524 15.7297C523.65 15.2871 519.901 17.9093 518.988 21.6991C518.686 22.9542 518.692 24.2208 519.005 25.4656C519.008 25.4869 519.012 25.5076 519.018 25.5284L520.104 29.3724C520.354 30.2598 520.502 31.1768 520.544 32.1011L520.624 33.6595C520.658 34.3188 521.156 34.8727 521.809 34.9762L527.706 35.9101C528.359 36.0135 529.004 35.6406 529.239 35.0239L529.799 33.5636C530.123 32.701 530.546 31.8745 531.06 31.1076L533.28 27.7872C533.294 27.7663 533.306 27.7441 533.316 27.7212ZM526.235 22.9303L526.639 22.9943C526.672 22.9996 526.704 22.9919 526.737 22.9901C526.767 23.002 526.795 23.019 526.829 23.0243L527.232 23.0883C527.19 23.9228 527.784 24.6741 528.628 24.8077L530.056 25.0339L526.215 34.7248L523.606 34.3115L522.948 23.9081L524.377 24.1344C525.22 24.268 526.017 23.737 526.235 22.9303ZM525.465 21.8591L524.755 21.7467C524.363 21.6847 524.095 21.3155 524.157 20.9217C524.219 20.5301 524.589 20.2623 524.98 20.3243C525.372 20.3863 525.64 20.755 525.578 21.1466L525.465 21.8591ZM532.49 27.2738C532.481 27.2885 532.472 27.3038 532.464 27.3198L530.28 30.5865C529.727 31.4134 529.27 32.3045 528.922 33.2315L528.364 34.6887C528.285 34.8946 528.07 35.0186 527.853 34.9842L527.164 34.875L531.755 23.2906C531.85 23.0499 531.733 22.7773 531.492 22.6821C531.25 22.5872 530.979 22.7051 530.884 22.945L530.41 24.1407L528.774 23.8817C528.443 23.8292 528.2 23.5567 528.171 23.237L528.859 23.3459C529.762 23.4889 530.612 22.8713 530.755 21.9666C530.898 21.0646 530.28 20.2146 529.378 20.0716C528.476 19.9288 527.626 20.5464 527.483 21.4483L527.37 22.1609L526.975 22.0984C526.942 22.0931 526.91 22.1007 526.877 22.1025C526.847 22.0907 526.819 22.0736 526.785 22.0683L526.391 22.0058L526.504 21.2932C526.646 20.3912 526.029 19.5412 525.127 19.3984C524.224 19.2554 523.374 19.873 523.231 20.7773C523.088 21.6797 523.706 22.5297 524.608 22.6727L525.296 22.7817C525.17 23.0768 524.855 23.2609 524.523 23.2084L522.887 22.9493L522.806 21.6656C522.79 21.4077 522.57 21.2121 522.308 21.2276C522.05 21.2437 521.854 21.4666 521.87 21.7251L522.657 34.1613L521.956 34.0502C521.738 34.0157 521.572 33.8314 521.561 33.6113L521.481 32.0557C521.436 31.0628 521.276 30.0744 521.006 29.1177L519.935 25.3237C519.932 25.3103 519.929 25.2969 519.926 25.2833C519.639 24.1719 519.63 23.0401 519.9 21.9186C520.704 18.581 524.006 16.2713 527.417 16.661C529.323 16.8784 531.004 17.8348 532.16 19.3545C533.316 20.8751 533.788 22.7514 533.489 24.6373C533.34 25.5808 533.004 26.4675 532.49 27.2738ZM528.296 22.3076L528.409 21.595C528.471 21.2035 528.84 20.9356 529.231 20.9976C529.623 21.0596 529.891 21.4284 529.829 21.8222C529.767 22.2137 529.397 22.482 529.006 22.42L528.296 22.3076Z" fill="black" fill-opacity="0.8"/>
<path d="M528.49 36.9835C528.531 36.7276 528.357 36.4878 528.101 36.4472L521.156 35.3473C520.9 35.3068 520.66 35.4811 520.62 35.737C520.579 35.9929 520.754 36.2327 521.009 36.2733L527.954 37.3732C528.21 37.4137 528.45 37.2394 528.49 36.9835Z" fill="black" fill-opacity="0.8"/>
<path d="M527.345 38.2258C527.385 37.9699 527.211 37.73 526.955 37.6895L521.862 36.8829C521.606 36.8424 521.366 37.0166 521.326 37.2725C521.285 37.5285 521.46 37.7683 521.715 37.8089L526.808 38.6155C527.064 38.656 527.304 38.4817 527.345 38.2258Z" fill="black" fill-opacity="0.8"/>
<path d="M526.662 39.5414C526.702 39.2855 526.528 39.0457 526.272 39.0051L522.105 38.3452C521.849 38.3046 521.609 38.4789 521.569 38.7348C521.528 38.9907 521.703 39.2306 521.958 39.2711L526.125 39.9311C526.381 39.9716 526.621 39.7973 526.662 39.5414Z" fill="black" fill-opacity="0.8"/>
<path d="M504.214 46.4272C501.657 46.0223 499.256 47.7668 498.851 50.3238C498.446 52.8807 500.191 55.2819 502.748 55.6868C505.305 56.0918 507.706 54.3473 508.111 51.7903C508.516 49.2334 506.771 46.8322 504.214 46.4272ZM502.894 54.7609C500.852 54.4374 499.454 52.5127 499.777 50.4704C499.828 50.1502 499.922 49.8482 500.046 49.5638L502.526 49.9566C502.786 49.9978 503.052 49.9276 503.258 49.7632L503.643 49.4559C504.06 49.1223 504.672 49.2049 504.986 49.6374L505.34 50.1242C505.486 50.3254 505.706 50.4603 505.952 50.4992L507.21 50.6984C507.239 51.0071 507.236 51.3234 507.185 51.6437C506.861 53.6859 504.937 55.0843 502.894 54.7609Z" fill="black" fill-opacity="0.8"/>
<path d="M527.633 54.0298C526.938 53.5131 526.016 52.6553 525.705 51.5737C525.073 49.3769 523.085 49.4943 523.085 49.4943L523.084 49.5019C522.819 49.4067 522.542 49.3327 522.254 49.2856L522.255 49.2846C522.251 49.2839 522.247 49.2838 522.242 49.2831C522.238 49.2825 522.235 49.2814 522.231 49.2808C522.173 49.2716 522.116 49.2692 522.058 49.2622C518.22 48.7495 516.918 51.3167 516.301 52.815C515.861 53.8841 515.1 55.0718 514.478 55.9568C514.042 56.5775 514.488 57.4421 515.247 57.4322C516.466 57.4164 517.42 57.1881 517.983 57.0114C518.679 57.8013 519.643 58.3628 520.764 58.5403C522.518 58.8181 524.198 58.0844 525.211 56.7712C525.838 56.5582 526.865 56.1451 527.649 55.5105C528.124 55.126 528.123 54.3946 527.633 54.0298ZM517.973 55.186C521.052 55.0464 522.571 53.58 523.299 52.3858C523.625 52.9171 524.228 53.6033 525.244 53.8581C525.246 54.0689 525.236 54.282 525.202 54.4972C524.878 56.5395 522.953 57.9379 520.911 57.6144C519.517 57.3936 518.425 56.4267 517.973 55.186Z" fill="black" fill-opacity="0.8"/>
<path d="M507.53 42.3529C507.596 42.4069 507.673 42.4395 507.751 42.4519C507.911 42.4772 508.079 42.4191 508.189 42.2844L508.484 41.9205C508.648 41.7198 508.617 41.4243 508.416 41.2613C508.216 41.0975 507.92 41.1286 507.757 41.3298L507.461 41.6936C507.298 41.8944 507.328 42.1898 507.53 42.3529Z" fill="black" fill-opacity="0.8"/>
<path d="M514.328 33.986C514.128 33.8222 513.832 33.8532 513.669 34.0545L513.374 34.4184C513.21 34.6191 513.241 34.9145 513.442 35.0776C513.508 35.1316 513.585 35.1642 513.664 35.1766C513.823 35.2019 513.992 35.1438 514.101 35.0091L514.397 34.6453C514.56 34.4445 514.53 34.1491 514.328 33.986Z" fill="black" fill-opacity="0.8"/>
<path d="M504.707 45.8254C504.774 45.8795 504.851 45.9121 504.929 45.9246C505.089 45.9498 505.258 45.8917 505.367 45.7575L505.528 45.5592C505.692 45.358 505.661 45.063 505.46 44.8995C505.259 44.7351 504.963 44.7671 504.801 44.9675L504.639 45.1658C504.476 45.367 504.507 45.662 504.707 45.8254Z" fill="black" fill-opacity="0.8"/>
<path d="M506.051 44.1719C506.117 44.226 506.194 44.2585 506.273 44.271C506.433 44.2963 506.601 44.2382 506.711 44.1039L507.006 43.7401C507.17 43.5394 507.139 43.2439 506.938 43.0805C506.736 42.9164 506.442 42.9481 506.279 43.1485L505.983 43.5122C505.82 43.713 505.85 44.0084 506.051 44.1719Z" fill="black" fill-opacity="0.8"/>
<path d="M511.373 37.6238C511.171 37.4598 510.876 37.4909 510.713 37.6917L510.417 38.0555C510.254 38.2562 510.284 38.5517 510.485 38.7151C510.552 38.7692 510.629 38.8018 510.707 38.8142C510.867 38.8395 511.036 38.7814 511.145 38.6472L511.441 38.2834C511.604 38.0826 511.573 37.7872 511.373 37.6238Z" fill="black" fill-opacity="0.8"/>
<path d="M515.807 32.167C515.606 32.0026 515.311 32.0347 515.148 32.235L514.852 32.5987C514.688 32.7995 514.719 33.0949 514.92 33.2584C514.986 33.3125 515.063 33.345 515.142 33.3575C515.301 33.3828 515.47 33.3247 515.579 33.1904L515.875 32.8266C516.039 32.6259 516.008 32.3304 515.807 32.167Z" fill="black" fill-opacity="0.8"/>
<path d="M509.894 39.4428C509.694 39.279 509.398 39.31 509.235 39.5112L508.939 39.8751C508.776 40.0758 508.807 40.3713 509.008 40.5343C509.074 40.5883 509.151 40.6209 509.229 40.6334C509.389 40.6587 509.558 40.6005 509.667 40.4659L509.962 40.102C510.126 39.9012 510.095 39.6058 509.894 39.4428Z" fill="black" fill-opacity="0.8"/>
<path d="M512.851 35.8051C512.649 35.6406 512.354 35.6727 512.191 35.8731L511.896 36.2365C511.732 36.4377 511.763 36.7327 511.964 36.8961C512.03 36.9502 512.107 36.9828 512.186 36.9952C512.345 37.0205 512.514 36.9624 512.623 36.8282L512.918 36.4648C513.082 36.2636 513.051 35.9686 512.851 35.8051Z" fill="black" fill-opacity="0.8"/>
<path d="M518.763 28.5293C518.561 28.3648 518.267 28.3969 518.104 28.5973L517.808 28.9611C517.644 29.1618 517.675 29.4572 517.876 29.6207C517.942 29.6748 518.019 29.7073 518.098 29.7198C518.257 29.7451 518.426 29.687 518.535 29.5527L518.831 29.189C518.995 28.9882 518.964 28.6928 518.763 28.5293Z" fill="black" fill-opacity="0.8"/>
<path d="M517.284 30.3483C517.084 30.1845 516.788 30.2155 516.625 30.4168L516.33 30.7807C516.166 30.9814 516.197 31.2769 516.398 31.4399C516.464 31.4939 516.541 31.5265 516.62 31.539C516.779 31.5642 516.948 31.5061 517.057 31.3714L517.353 31.0076C517.516 30.8068 517.486 30.5114 517.284 30.3483Z" fill="black" fill-opacity="0.8"/>
<path d="M539.506 60.977C542.062 61.382 544.464 59.6375 544.869 57.0805C545.274 54.5235 543.529 52.1224 540.972 51.7175C538.415 51.3125 536.014 53.057 535.609 55.614C535.204 58.1709 536.949 60.5721 539.506 60.977ZM543.943 56.9339C543.619 58.9762 541.695 60.3746 539.652 60.0511C537.972 59.785 536.73 58.4343 536.522 56.8266C538.99 57.1197 540.209 55.5522 540.791 54.2209C541.379 54.6934 542.498 55.4511 543.944 55.7751C544.002 56.1499 544.005 56.5395 543.943 56.9339Z" fill="black" fill-opacity="0.8"/>
<path d="M79.8207 90.6737L84.4988 70.3612C84.8275 68.9342 86.0797 67.9375 87.5441 67.9375H103.434L88.3284 54.7461C86.051 52.7572 83.1299 51.6613 80.1062 51.6613H75.9634L72.2669 58.4383C71.711 59.4574 70.3015 59.5927 69.562 58.6978L63.7466 51.6613H59.9802C55.3588 51.6613 51.1145 54.211 48.9443 58.2912L38.353 78.2028C36.678 81.3519 36.8496 85.1629 38.8007 88.1487C40.6075 90.9136 43.8961 92.9375 46.9902 92.9375H61.2812V92.8493V82.7904L60.7899 82.6885L52.8576 81.0425C52.1161 80.8884 51.492 80.3826 51.1876 79.6891C50.8831 78.9956 50.9335 78.1937 51.3226 77.5437L55.019 71.3707C55.2403 71 55.7209 70.8809 56.091 71.1014C56.461 71.3234 56.5815 71.8033 56.3603 72.1734L52.6638 78.3463C52.5319 78.566 52.5151 78.827 52.6181 79.0612C52.7211 79.2962 52.924 79.4602 53.175 79.5121L61.7835 81.2988L62.2212 81.3897C62.5836 81.4652 62.8437 81.7849 62.8437 82.1549V82.2186V83.006L66.1411 83.4181L66.9428 83.5183L67.7735 83.6222L68.2423 83.6808C69.5347 83.8428 70.7081 84.3569 71.6719 85.1183C71.8781 85.2812 72.0714 85.4584 72.2575 85.643C72.4455 85.8296 72.6214 86.0275 72.7871 86.2343C73.7445 87.4286 74.3176 88.9364 74.3176 90.564C74.3176 90.9951 73.9674 91.3453 73.5363 91.3453H62.8437V92.1268V92.9078V92.9375H80.1801C79.7821 92.2555 79.6401 91.4573 79.8207 90.6737ZM68.2278 73.2144C68.427 72.3544 69.0073 71.6715 69.7678 71.3251L69.804 71.169C70.0963 69.9064 71.2051 69.0247 72.5002 69.0248C72.5002 69.0248 72.5002 69.0248 72.5003 69.0248C72.7104 69.0248 72.921 69.0489 73.1292 69.0972C74.6162 69.4419 75.5458 70.9323 75.2016 72.4195L75.165 72.5772C75.6911 73.22 75.9179 74.0877 75.7183 74.9491L73.4708 84.6539C73.2616 84.4381 73.0424 84.2324 72.8112 84.0395C72.5923 83.8569 72.366 83.6832 72.1289 83.5228L74.196 74.5966C74.3362 73.9917 73.9914 73.3931 73.4189 73.1919L73.6793 72.0671C73.8296 71.4179 73.4253 70.7698 72.7763 70.6193L72.7737 70.6187C72.682 70.5974 72.5904 70.5873 72.5002 70.5873C71.9515 70.5872 71.4553 70.9641 71.3262 71.5215L71.0657 72.647C71.0178 72.6414 70.9701 72.6386 70.9228 72.6386C70.3746 72.6386 69.879 73.01 69.7501 73.567L67.7857 82.0492L67.0058 81.9517L66.227 81.8543L68.2278 73.2144Z" fill="black" fill-opacity="0.3"/>
<path d="M40.892 58.9636C43.9591 58.5879 46.3359 55.9789 46.3359 52.8103C46.3359 51.8354 46.1105 50.9134 45.7096 50.0927C45.5427 49.7512 45.7494 49.3546 46.1259 49.3021C49.1432 48.8814 51.4657 46.2918 51.4657 43.1587C51.4657 42.2315 51.2608 41.3532 50.8949 40.5644C50.6197 39.971 51.0407 39.2995 51.6939 39.3346C51.8021 39.3404 51.911 39.3434 52.0207 39.3434C53.5227 39.3434 54.8998 38.8094 55.9732 37.9212C57.0107 45.1323 63.501 50.5816 71.1409 49.9132C77.7229 49.3374 83.1176 44.0846 83.8477 37.518C84.7914 29.0299 78.1724 21.8438 69.875 21.8438C64.308 21.8438 59.5109 25.0869 57.2321 29.7794C55.9476 27.7907 53.5618 26.5799 50.9334 27.0268C48.2816 27.4777 46.1867 29.6978 45.8628 32.368C45.7153 33.5847 45.9228 34.7396 46.3934 35.7475C46.6698 36.3393 46.2305 36.9964 45.5782 36.9623C44.9625 36.9302 44.3217 36.9907 43.6658 37.1624C41.3892 37.7583 39.6008 39.651 39.1683 41.9643C38.9037 43.3796 39.1216 44.7292 39.6843 45.8794C39.8508 46.2197 39.6426 46.6145 39.2674 46.6668C36.2498 47.0871 33.9266 49.6768 33.9266 52.8103C33.9266 54.0944 34.3169 55.2873 34.985 56.2772C33.1949 56.6588 30.84 57.8019 29.2296 61.0226C28.375 62.8792 29.0517 65.6651 29.6574 67.4465C30.0432 68.5817 29.8644 69.8293 29.19 70.8204C28.8439 71.3289 28.8275 72.0235 29.17 72.5345C29.585 73.1536 30.3555 73.3837 31.0136 73.1195C33.719 72.0335 41.605 68.0631 40.892 58.9636ZM69.875 48.4062C66.9303 48.4062 64.2251 47.3766 62.0865 45.6666C66.7607 42.7955 66.4554 38.1332 65.8581 35.6166C65.6535 34.7543 66.1521 33.8858 67.0052 33.6456C69.1211 33.05 70.4171 31.4118 71.1363 30.1364C73.2682 32.1549 76.6938 33.8322 82.194 33.87C82.3036 34.5343 82.375 35.2114 82.375 35.9062C82.375 42.7988 76.7675 48.4062 69.875 48.4062Z" fill="black" fill-opacity="0.3"/>
<path d="M116.188 70.7444C116.185 70.7301 116.186 70.7148 116.183 70.7007C116.156 70.5913 116.118 70.4862 116.07 70.3863C116.068 70.3835 116.068 70.3803 116.066 70.3776C115.815 69.8649 115.29 69.5 114.662 69.5H114.662H105.223H87.5441H87.5419C86.812 69.5 86.1793 70.0054 86.018 70.7173L85.8872 71.2951L81.3433 91.0243C81.1178 92.0032 81.8613 92.9375 82.8659 92.9375H82.9404H84.4427H109.983H110.061C110.79 92.9375 111.423 92.4321 111.584 91.7202L116.186 71.4077C116.209 71.3059 116.216 71.2053 116.219 71.1055C116.219 71.0869 116.225 71.0676 116.225 71.0491C116.224 70.9449 116.209 70.8436 116.188 70.7444ZM84.4427 84.7434L85.8364 78.5909L87.5419 71.0625H107.012H114.662L110.061 91.375H84.4427H82.9404L84.4427 84.7434Z" fill="black" fill-opacity="0.3"/>
<path d="M98.7812 84.3438C100.939 84.3438 102.688 82.5949 102.688 80.4375C102.688 78.2801 100.939 76.5312 98.7812 76.5312C96.6238 76.5312 94.875 78.2801 94.875 80.4375C94.875 82.5949 96.6238 84.3438 98.7812 84.3438ZM98.7812 78.0938C100.074 78.0938 101.125 79.1451 101.125 80.4375C101.125 81.7299 100.074 82.7812 98.7812 82.7812C97.4889 82.7812 96.4375 81.7299 96.4375 80.4375C96.4375 79.1451 97.4889 78.0938 98.7812 78.0938Z" fill="black" fill-opacity="0.3"/>
<g clip-path="url(#clip3_4_743)">
<path d="M89.8544 347.164L85.7954 330.933L89.8834 308.458C90.0904 307.327 89.3404 306.242 88.2054 306.037C87.0774 305.819 85.9904 306.58 85.7854 307.714L81.9284 328.918H69.0844C67.9334 328.918 67.0014 329.85 67.0014 331.001C67.0014 332.152 67.9334 333.084 69.0844 333.084H70.5834L67.0634 347.163C66.7824 348.277 67.4624 349.409 68.5804 349.688C68.7484 349.73 68.9194 349.75 69.0864 349.75C70.0214 349.75 70.8684 349.119 71.1044 348.171L74.8754 333.083H82.0414L85.8124 348.171C86.0484 349.119 86.8984 349.75 87.8324 349.75C87.9984 349.75 88.1694 349.729 88.3394 349.688C89.4554 349.41 90.1354 348.278 89.8544 347.164Z" fill="black" fill-opacity="0.6"/>
<path d="M80.188 327.333L81.702 319H42V350.25H48.25V327.333H69.083H80.188Z" fill="black" fill-opacity="0.6"/>
<path d="M89.517 319L88 327.333H93.427V350.25H99.677V319H89.517Z" fill="black" fill-opacity="0.6"/>
<path d="M70.9183 308.75V290H48.0013V308.75H56.3343V310.833C56.3343 312.728 55.3823 312.916 52.1673 312.916C47.8863 312.916 48.0003 315.186 48.0003 317.083H58.5273H60.3913H68.8343H70.9173C70.9173 315.189 70.9173 312.916 66.7503 312.916C63.5353 312.916 62.5833 312.728 62.5833 310.833V308.75H70.9183ZM52.1683 304.584V294.167H66.7523V304.584H52.1683Z" fill="black" fill-opacity="0.6"/>
</g>
<g clip-path="url(#clip4_4_743)">
<path d="M437.508 196.09C437.508 195.101 436.705 194.299 435.717 194.299C434.727 194.299 433.926 195.101 433.926 196.09C433.926 197.079 434.727 197.881 435.717 197.881C436.705 197.881 437.508 197.079 437.508 196.09Z" fill="#1A1A1A" fill-opacity="0.3"/>
<path d="M428.851 197.881C429.84 197.881 430.642 197.079 430.642 196.09C430.642 195.101 429.84 194.299 428.851 194.299C427.861 194.299 427.06 195.101 427.06 196.09C427.06 197.079 427.861 197.881 428.851 197.881Z" fill="#1A1A1A" fill-opacity="0.3"/>
<path d="M438.104 205.865C438.6 205.865 439 205.465 439 204.971V199.971C439 198.98 438.197 198.179 437.209 198.179C436.221 198.179 435.418 198.98 435.418 199.971V204.447L436.314 212.428H436.32C436.357 213.137 436.939 213.701 437.656 213.701C438.398 213.701 439 213.099 439 212.357V206.836V206.156C438.75 206.346 438.441 206.463 438.104 206.463C437.281 206.463 436.611 205.793 436.611 204.971V201.762C436.611 201.642 436.533 201.33 436.471 201.078C436.387 200.742 436.313 200.453 436.313 200.269H436.91C436.91 200.381 436.988 200.685 437.049 200.932C437.131 201.26 437.209 201.57 437.209 201.762V204.971C437.209 205.465 437.609 205.865 438.104 205.865Z" fill="#1A1A1A" fill-opacity="0.3"/>
<path d="M425.567 202.061H419.597V203.254H425.567V202.061Z" fill="#1A1A1A" fill-opacity="0.3"/>
<path d="M425.269 206.537V203.553H419.896V206.537H419V213.701H420.194V208.029H424.97V213.701H426.164V206.537H425.269V206.537ZM421.301 204.834L422.018 205.551L423.901 204.205L424.248 204.691L421.953 206.33L420.879 205.256L421.301 204.834Z" fill="#1A1A1A" fill-opacity="0.3"/>
<path d="M433.627 199.074C433.262 199.068 433.305 199.584 433.029 199.971C432.92 200.125 432.731 200.269 432.731 200.269L431.712 201.047L430.366 199.018C430.365 199.014 430.363 199.014 430.361 199.012C430.044 198.512 429.486 198.179 428.851 198.179C427.861 198.179 427.06 198.981 427.06 199.971V204.971V206.156V206.836V212.357C427.06 213.1 427.661 213.701 428.403 213.701C429.121 213.701 429.702 213.137 429.739 212.428H429.744L430.642 204.447V203.543C430.519 203.449 430.404 203.344 430.314 203.215L428.353 200.414L428.714 199.887L430.642 202.641L430.804 202.871C430.947 203.076 431.171 203.213 431.419 203.246C431.458 203.252 431.498 203.254 431.537 203.254C431.745 203.254 431.949 203.182 432.111 203.047L433.902 201.553C434.106 201.383 434.225 201.131 434.225 200.865V199.971C434.225 199.477 433.936 199.08 433.627 199.074Z" fill="#1A1A1A" fill-opacity="0.3"/>
</g>
<g clip-path="url(#clip5_4_743)">
<path d="M18.5397 124.274C21.7806 124.274 24.4079 121.647 24.4079 118.406C24.4079 115.165 21.7806 112.538 18.5397 112.538C15.2988 112.538 12.6715 115.165 12.6715 118.406C12.6715 121.647 15.2988 124.274 18.5397 124.274Z" fill="black" fill-opacity="0.2"/>
<path d="M53.2639 125.347C50.3805 125.347 47.9885 127.428 47.4945 130.168C47.4945 130.169 47.4893 130.17 47.4893 130.171L45.874 138.77L36.423 142.708C35.0424 143.284 34.3898 144.869 34.9644 146.25C35.3986 147.29 36.4055 147.917 37.4669 147.917C37.8134 147.917 38.167 147.849 38.5076 147.708L48.2693 143.64V143.641L49.3411 143.194C50.2011 142.835 50.8173 142.059 50.97 141.14L51.947 135.277H53.7767L52.751 141.435C52.4943 142.978 51.4796 144.259 50.0347 144.86L48.398 145.543L50.1036 170.486C50.1036 172.979 52.1251 174.999 54.6172 174.999C57.1106 174.999 59.1314 172.979 59.1314 170.486V131.215C59.1321 127.974 56.5048 125.347 53.2639 125.347Z" fill="black" fill-opacity="0.2"/>
<path d="M15.939 125.538C18.8224 125.538 21.2144 127.618 21.7084 130.358C21.7084 130.36 21.7136 130.361 21.7136 130.362L23.3289 138.961L32.7799 142.898C34.1605 143.474 34.8131 145.059 34.2385 146.44C33.8043 147.48 32.7974 148.108 31.736 148.108C31.3895 148.108 31.0359 148.04 30.6953 147.899L20.9336 143.831V143.832L19.8617 143.385C19.0018 143.026 18.3856 142.249 18.2329 141.33L17.2559 135.468H15.4262L16.4519 141.626C16.7086 143.169 17.7233 144.449 19.1682 145.051L20.8049 145.733L19.0993 170.676C19.0993 173.17 17.0778 175.19 14.5857 175.19C12.0923 175.19 10.0715 173.17 10.0715 170.676V131.406C10.0708 128.165 12.6981 125.538 15.939 125.538Z" fill="black" fill-opacity="0.2"/>
<path d="M43.9438 119.512C44.1868 120.311 45.0842 120.78 45.8241 120.404C45.8717 120.38 45.9151 120.353 45.9533 120.323C45.9533 120.323 46.0124 120.696 45.5109 121.486C45.1569 122.044 45.1696 122.763 45.5637 123.293C46.2827 124.26 47.8073 124.096 48.242 122.97C48.3316 122.738 48.3905 122.467 48.4222 122.17C49.4224 123.386 50.9311 124.16 52.6196 124.16C53.5685 124.16 54.4601 123.915 55.2373 123.485C55.4561 124.204 56.0646 124.827 56.6522 125.283C57.2737 125.765 58.178 125.536 58.5061 124.817C58.7274 124.332 58.6154 123.755 58.2225 123.398C57.7904 123.004 57.4811 122.562 57.2591 122.141C57.5189 122.408 57.8097 122.633 58.0929 122.812C58.7009 123.196 59.5063 122.918 59.776 122.248C59.9661 121.775 59.8371 121.225 59.4424 120.906C58.6233 120.246 58.2405 119.437 58.0622 118.861C58.0646 118.794 58.0722 118.728 58.0722 118.66C58.0722 118.138 57.9954 117.635 57.8606 117.156C57.8603 117.153 57.86 117.15 57.8598 117.146C59.113 117.117 60.1215 116.088 60.1215 114.817C60.1215 113.92 59.6137 113.15 58.8775 112.759C58.9105 112.602 58.9295 112.439 58.9295 112.272C58.9295 110.983 57.8933 109.938 56.615 109.938C55.3367 109.938 54.3005 110.983 54.3005 112.272C54.3005 112.329 54.3132 112.382 54.3172 112.438C53.069 112.077 51.9752 112.224 51.9752 112.224C51.9752 112.224 48.7991 112.249 46.8426 115.658C46.8426 115.658 45.9576 116.954 44.5462 117.852C44.0032 118.197 43.7443 118.856 43.9325 119.475L43.9438 119.512ZM48.7831 116.568C49.8457 116.359 50.6445 115.755 51.1968 115.148C51.4937 116.854 52.5323 119.72 56.0968 121.306C55.2999 122.369 54.0399 123.06 52.6196 123.06C50.2144 123.06 48.2576 121.087 48.2576 118.66C48.2576 117.904 48.4481 117.191 48.7831 116.568Z" fill="black" fill-opacity="0.2"/>
</g>
<path d="M479.9 126.501L480.826 142.26H488.244L489.17 126.501C490.706 126.501 491.951 125.255 491.951 123.717V114.714C491.951 113.181 490.308 111.535 488.772 111.535H480.296C478.76 111.535 477.117 113.181 477.117 114.714V123.717C477.118 125.255 478.363 126.501 479.9 126.501Z" fill="#1A1A1A" fill-opacity="0.3"/>
<path d="M467.278 135.151L464.422 134.29C464.132 135.249 463.902 136.301 463.736 137.418L466.686 137.857C466.831 136.882 467.03 135.971 467.278 135.151Z" fill="#1A1A1A" fill-opacity="0.3"/>
<path d="M469.836 130.726L467.822 128.527C467.004 129.276 466.29 130.187 465.699 131.239L468.297 132.701C468.734 131.926 469.252 131.262 469.836 130.726Z" fill="#1A1A1A" fill-opacity="0.3"/>
<path d="M490.006 167.453C490.006 166.736 489.972 166.016 489.909 165.302L486.938 165.568C486.994 166.195 487.023 166.824 487.023 167.457C487.023 167.758 487.017 168.06 487.002 168.359L489.981 168.493C489.997 168.145 490.006 167.797 490.006 167.453Z" fill="#1A1A1A" fill-opacity="0.3"/>
<path d="M466.716 140.316L463.79 140.896C464.012 142.011 464.441 143.103 465.067 144.139L467.62 142.595C467.173 141.857 466.87 141.091 466.716 140.316Z" fill="#1A1A1A" fill-opacity="0.3"/>
<path d="M492.027 128.724L492.021 128.811L492.032 128.719L492.027 128.724Z" fill="#1A1A1A" fill-opacity="0.3"/>
<path d="M485.393 183.026C485.393 182.86 485.396 182.696 485.406 182.531L482.428 182.362C482.416 182.582 482.41 182.804 482.41 183.028C482.41 183.919 482.509 184.828 482.704 185.73L485.62 185.101C485.468 184.404 485.393 183.705 485.393 183.026Z" fill="#1A1A1A" fill-opacity="0.3"/>
<path d="M489.609 171.678L486.682 171.107C486.499 172.041 486.244 172.913 485.926 173.699L488.69 174.821C489.079 173.857 489.389 172.799 489.609 171.678Z" fill="#1A1A1A" fill-opacity="0.3"/>
<path d="M478.968 150.693L477.655 153.37L477.883 153.482C478.736 153.901 479.554 154.301 480.307 154.692L481.681 152.045C480.909 151.645 480.072 151.233 479.197 150.805L478.968 150.693Z" fill="#1A1A1A" fill-opacity="0.3"/>
<path d="M467.158 146.752C467.872 147.458 468.679 148.136 469.625 148.821L471.375 146.407C470.565 145.82 469.853 145.223 469.258 144.635L467.158 146.752Z" fill="#1A1A1A" fill-opacity="0.3"/>
<path d="M472.249 150.527C473.135 151.051 474.043 151.544 474.947 152.012L476.319 149.365C475.464 148.923 474.605 148.457 473.767 147.962L472.249 150.527Z" fill="#1A1A1A" fill-opacity="0.3"/>
<path d="M474.109 125.881C472.89 125.999 471.804 126.254 470.792 126.661L471.906 129.428C472.65 129.128 473.465 128.939 474.396 128.849L474.109 125.881Z" fill="#1A1A1A" fill-opacity="0.3"/>
<path d="M489.411 162.149C489.164 161.064 488.839 160.027 488.449 159.068L485.686 160.192C486.015 161.003 486.291 161.885 486.504 162.816L489.411 162.149Z" fill="#1A1A1A" fill-opacity="0.3"/>
<path d="M487.091 177.697L484.615 176.031C483.969 176.99 483.459 178 483.095 179.028L485.907 180.02C486.188 179.228 486.585 178.447 487.091 177.697Z" fill="#1A1A1A" fill-opacity="0.3"/>
<path d="M519.004 154.915C518.233 154.708 517.557 154.405 516.665 153.872L515.134 156.43C516.261 157.107 517.187 157.515 518.23 157.795L519.004 154.915Z" fill="#1A1A1A" fill-opacity="0.3"/>
<path d="M512.489 154.633L514.369 152.318C513.691 151.769 513.099 151.152 512.557 150.431L510.173 152.222C510.864 153.141 511.621 153.928 512.489 154.633Z" fill="#1A1A1A" fill-opacity="0.3"/>
<path d="M524.616 155.525C523.467 155.466 522.512 155.408 521.693 155.336L521.428 158.307C522.279 158.382 523.27 158.444 524.464 158.505L524.616 155.525Z" fill="#1A1A1A" fill-opacity="0.3"/>
<path d="M554.314 168.786L557.285 168.515C557.18 167.358 556.938 166.252 556.568 165.229L553.763 166.245C554.045 167.027 554.232 167.881 554.314 168.786Z" fill="#1A1A1A" fill-opacity="0.3"/>
<path d="M506.275 143.635L509.12 142.743C508.844 141.855 508.561 140.91 508.269 139.906L505.407 140.742C505.703 141.767 505.991 142.729 506.275 143.635Z" fill="#1A1A1A" fill-opacity="0.3"/>
<path d="M484.441 157.847L486.888 156.143C486.496 155.582 486.075 155.072 485.627 154.624C485.308 154.306 484.918 153.988 484.435 153.65L482.728 156.093C483.062 156.327 483.33 156.543 483.52 156.732C483.84 157.055 484.149 157.429 484.441 157.847Z" fill="#1A1A1A" fill-opacity="0.3"/>
<path d="M486.473 187.61L483.771 188.869C484.212 189.818 484.761 190.765 485.402 191.679L487.842 189.967C487.303 189.196 486.843 188.404 486.473 187.61Z" fill="#1A1A1A" fill-opacity="0.3"/>
<path d="M498.018 200.961C499.077 201.314 500.129 201.577 501.144 201.743L501.629 198.802C500.767 198.659 499.868 198.434 498.958 198.131L498.018 200.961Z" fill="#1A1A1A" fill-opacity="0.3"/>
<path d="M529.828 185.468L530.045 188.442C530.912 188.38 531.842 188.371 532.842 188.424L532.999 185.445C531.865 185.386 530.814 185.397 529.828 185.468Z" fill="#1A1A1A" fill-opacity="0.3"/>
<path d="M487.428 194.16C488.139 194.916 488.921 195.645 489.749 196.33L491.648 194.029C490.914 193.424 490.223 192.78 489.597 192.116L487.428 194.16Z" fill="#1A1A1A" fill-opacity="0.3"/>
<path d="M535.794 185.5L536.021 188.473C537.022 188.396 538.086 188.233 539.187 187.987L538.541 185.078C537.576 185.292 536.652 185.434 535.794 185.5Z" fill="#1A1A1A" fill-opacity="0.3"/>
<path d="M551.974 177.152C551.625 177.617 551.231 178.078 550.801 178.525L552.953 180.589C553.465 180.057 553.937 179.503 554.358 178.942C554.584 178.641 554.796 178.335 554.995 178.024L552.48 176.42C552.321 176.668 552.153 176.912 551.974 177.152Z" fill="#1A1A1A" fill-opacity="0.3"/>
<path d="M553.641 174.039L556.452 175.041C556.822 174.006 557.079 172.925 557.221 171.827L554.264 171.445C554.148 172.332 553.94 173.205 553.641 174.039Z" fill="#1A1A1A" fill-opacity="0.3"/>
<path d="M546.409 181.938L547.93 184.504C548.862 183.95 549.745 183.354 550.558 182.727L548.737 180.366C548.02 180.918 547.237 181.448 546.409 181.938Z" fill="#1A1A1A" fill-opacity="0.3"/>
<path d="M552.569 164.121L554.833 162.176C554.081 161.304 553.208 160.661 552.232 160.265L551.803 160.095L550.72 162.873L551.113 163.03C551.643 163.244 552.132 163.611 552.569 164.121Z" fill="#1A1A1A" fill-opacity="0.3"/>
<path d="M541.26 184.307L542.225 187.129C543.206 186.793 544.188 186.401 545.141 185.964L543.898 183.253C543.034 183.649 542.147 184.004 541.26 184.307Z" fill="#1A1A1A" fill-opacity="0.3"/>
<path d="M501.359 129.322L499.705 131.803C500.48 132.322 501.188 132.893 501.809 133.502L503.901 131.376C503.147 130.635 502.29 129.944 501.359 129.322Z" fill="#1A1A1A" fill-opacity="0.3"/>
<path d="M507.422 136.998C507.081 135.936 506.601 134.911 505.994 133.956L503.475 135.555C503.945 136.295 504.317 137.087 504.581 137.91L507.422 136.998Z" fill="#1A1A1A" fill-opacity="0.3"/>
<path d="M492.31 198.197C493.201 198.772 494.13 199.295 495.068 199.752L496.373 197.07C495.542 196.665 494.718 196.2 493.924 195.689L492.31 198.197Z" fill="#1A1A1A" fill-opacity="0.3"/>
<path d="M495.536 126.635L494.694 129.498C495.586 129.759 496.462 130.086 497.295 130.468L498.539 127.757C497.575 127.316 496.565 126.939 495.536 126.635Z" fill="#1A1A1A" fill-opacity="0.3"/>
<path d="M504.366 199.018L504.428 202C505.542 201.999 506.613 201.904 507.606 201.721L507.064 198.788C506.245 198.939 505.357 199.016 504.366 199.018Z" fill="#1A1A1A" fill-opacity="0.3"/>
<path d="M509.588 198.025L510.776 200.759C511.76 200.331 512.695 199.796 513.634 199.122L511.897 196.7C511.132 197.249 510.376 197.682 509.588 198.025Z" fill="#1A1A1A" fill-opacity="0.3"/>
<path d="M523.553 187.017L524.791 189.729C525.595 189.362 526.452 189.068 527.339 188.855L526.64 185.955C525.569 186.213 524.528 186.571 523.553 187.017Z" fill="#1A1A1A" fill-opacity="0.3"/>
<path d="M518.27 190.666L520.297 192.853C521.055 192.152 521.759 191.574 522.452 191.082L520.73 188.647C519.93 189.213 519.123 189.873 518.27 190.666Z" fill="#1A1A1A" fill-opacity="0.3"/>
<path d="M515.947 192.977C515.311 193.632 514.678 194.286 514.023 194.909L516.08 197.07C516.765 196.421 517.424 195.739 518.09 195.052L518.233 194.906L516.092 192.829L515.947 192.977Z" fill="#1A1A1A" fill-opacity="0.3"/>
<path d="M510.053 145.504L507.256 146.538C507.662 147.638 508.063 148.584 508.484 149.433L511.157 148.111C510.782 147.357 510.421 146.505 510.053 145.504Z" fill="#1A1A1A" fill-opacity="0.3"/>
<path d="M527.528 157.157L527.555 156.641L527.596 155.667L527.528 157.157Z" fill="#1A1A1A" fill-opacity="0.3"/>
<path d="M464.424 163.863C464.424 165.909 466.084 167.57 468.133 167.57C470.18 167.57 471.841 165.909 471.841 163.863C471.841 161.815 470.18 160.154 468.133 160.154C466.084 160.154 464.424 161.815 464.424 163.863Z" fill="#1A1A1A" fill-opacity="0.3"/>
<path d="M475.549 181.872V172.868C475.549 171.335 473.906 169.689 472.37 169.689H463.895C462.359 169.689 460.716 171.334 460.716 172.868V181.872C460.716 183.409 461.961 184.656 463.497 184.656L464.424 200.415H471.841L472.768 184.656C474.304 184.656 475.549 183.409 475.549 181.872Z" fill="#1A1A1A" fill-opacity="0.3"/>
<path d="M497.793 175.708L498.72 191.467H506.137L507.064 175.708C508.6 175.708 509.845 174.462 509.845 172.924V163.921C509.845 162.387 508.202 160.741 506.666 160.741H498.19C496.654 160.741 495.011 162.387 495.011 163.921V172.924C495.012 174.462 496.257 175.708 497.793 175.708Z" fill="#1A1A1A" fill-opacity="0.3"/>
<path d="M519.674 110.182C519.674 112.228 521.334 113.89 523.383 113.89C525.43 113.89 527.092 112.228 527.092 110.182C527.092 108.135 525.43 106.473 523.383 106.473C521.334 106.473 519.674 108.135 519.674 110.182Z" fill="#1A1A1A" fill-opacity="0.3"/>
<path d="M530.799 128.191V119.187C530.799 117.654 529.156 116.008 527.62 116.008H519.146C517.61 116.008 515.967 117.654 515.967 119.187V128.191C515.967 129.728 517.211 130.975 518.748 130.975L519.674 146.734H527.092L528.018 130.975C529.554 130.975 530.799 129.728 530.799 128.191Z" fill="#1A1A1A" fill-opacity="0.3"/>
<path d="M480.826 105.709C480.826 107.755 482.486 109.417 484.535 109.417C486.582 109.417 488.244 107.755 488.244 105.709C488.244 103.662 486.582 102 484.535 102C482.487 102 480.826 103.662 480.826 105.709Z" fill="#1A1A1A" fill-opacity="0.3"/>
<path d="M537.488 141.496C537.488 143.542 539.148 145.204 541.197 145.204C543.245 145.204 544.906 143.542 544.906 141.496C544.906 139.449 543.245 137.787 541.197 137.787C539.149 137.787 537.488 139.449 537.488 141.496Z" fill="#1A1A1A" fill-opacity="0.3"/>
<path d="M498.72 154.916C498.72 156.963 500.38 158.624 502.429 158.624C504.476 158.624 506.137 156.963 506.137 154.916C506.137 152.869 504.476 151.208 502.429 151.208C500.38 151.208 498.72 152.869 498.72 154.916Z" fill="#1A1A1A" fill-opacity="0.3"/>
<path d="M536.563 162.289L537.489 178.048H544.907L545.834 162.289C547.37 162.289 548.615 161.043 548.615 159.505V150.5C548.615 148.967 546.972 147.321 545.435 147.321H536.96C535.424 147.321 533.781 148.967 533.781 150.5V159.504C533.781 161.042 535.027 162.289 536.563 162.289Z" fill="#1A1A1A" fill-opacity="0.3"/>
<path d="M530.799 155.854C529.693 155.774 528.705 155.72 527.905 155.683L527.607 155.667L527.554 156.641L527.471 158.647L527.746 158.662C528.571 158.701 529.569 158.754 530.696 158.835L530.798 157.429V155.854H530.799Z" fill="#1A1A1A" fill-opacity="0.3"/>
<g clip-path="url(#clip6_4_743)">
<path d="M68.3532 238.166C70.7898 238.166 72.765 236.18 72.765 233.729C72.765 231.278 70.7898 229.291 68.3532 229.291C65.9166 229.291 63.9414 231.278 63.9414 233.729C63.9414 236.18 65.9166 238.166 68.3532 238.166Z" fill="black" fill-opacity="0.1"/>
<path d="M68.3532 239.646C64.2915 239.646 61 242.956 61 247.041V250H75.7057V247.041C75.7057 242.956 72.4142 239.646 68.3532 239.646Z" fill="black" fill-opacity="0.1"/>
<path d="M86.0004 238.166C88.437 238.166 90.4122 236.18 90.4122 233.729C90.4122 231.278 88.437 229.291 86.0004 229.291C83.5638 229.291 81.5886 231.278 81.5886 233.729C81.5886 236.18 83.5638 238.166 86.0004 238.166Z" fill="black" fill-opacity="0.1"/>
<path d="M86.0003 239.646C81.9386 239.646 78.6471 242.956 78.6471 247.041V250H93.3528V247.041C93.3528 242.956 90.0613 239.646 86.0003 239.646Z" fill="black" fill-opacity="0.1"/>
<path d="M103.648 238.166C106.084 238.166 108.059 236.18 108.059 233.729C108.059 231.278 106.084 229.291 103.648 229.291C101.211 229.291 99.2357 231.278 99.2357 233.729C99.2357 236.18 101.211 238.166 103.648 238.166Z" fill="black" fill-opacity="0.1"/>
<path d="M103.648 239.646C99.5859 239.646 96.2943 242.956 96.2943 247.041V250H110.999V247.041C111 242.956 107.708 239.646 103.648 239.646Z" fill="black" fill-opacity="0.1"/>
<path d="M102.176 226.334C102.627 226.334 103.063 226.126 103.345 225.753C103.727 225.25 103.748 224.56 103.4 224.034C103.377 223.998 101.333 220.879 100.822 217.459H103.647C106.08 217.459 108.059 215.468 108.059 213.021V183.437C108.059 180.991 106.08 179 103.647 179H68.3532C65.9207 179 63.9414 180.991 63.9414 183.437V213.021C63.9414 215.468 65.9207 217.459 68.3532 217.459H71.1774C70.6643 220.867 68.6221 224.001 68.5988 224.036C68.2523 224.561 68.2741 225.251 68.6567 225.753C68.9412 226.126 69.376 226.334 69.8243 226.334C69.9796 226.334 70.1356 226.309 70.2887 226.256C70.66 226.133 78.7572 223.345 79.9629 217.459H81.9987L84.6048 225.323C84.8046 225.926 85.3657 226.334 85.9996 226.334C86.6335 226.334 87.1947 225.926 87.3952 225.323L90.0006 217.459H92.03C93.2335 223.348 101.339 226.133 101.711 226.256C101.864 226.309 102.022 226.334 102.176 226.334ZM94.8239 215.979C94.8239 215.162 94.1646 214.5 93.3528 214.5H88.9411C88.3079 214.5 87.7474 214.908 87.5462 215.512L86.0003 220.176L84.4544 215.512C84.249 214.892 83.6751 214.506 83.0596 214.507V214.5H78.6471C77.8354 214.5 77.1768 215.162 77.1768 215.979C77.1768 218.346 75.1593 220.291 73.0727 221.63C73.7038 219.984 74.236 217.995 74.236 215.979C74.236 215.162 73.5775 214.5 72.7657 214.5H68.3539C67.5428 214.5 66.8835 213.838 66.8835 213.021V183.437C66.8835 182.621 67.5435 181.959 68.3539 181.959H103.648C104.459 181.959 105.119 182.621 105.119 183.437V213.021C105.119 213.838 104.459 214.5 103.648 214.5H99.2364C98.4246 214.5 97.7653 215.162 97.7653 215.979C97.7653 217.99 98.2962 219.971 98.9237 221.616C96.907 220.339 94.8239 218.427 94.8239 215.979Z" fill="black" fill-opacity="0.1"/>
<path d="M86.0003 190.834C82.7518 190.834 80.1182 193.483 80.1182 196.75C80.1182 198.934 81.2539 200.206 82.2641 201.971C82.6403 202.63 83.0596 204.145 83.0596 204.885C83.0596 205.293 83.3885 205.625 83.7951 205.625H88.2069C88.6128 205.625 88.9417 205.293 88.9417 204.885C88.9417 204.145 89.3617 202.629 89.738 201.971C90.7481 200.206 91.8839 198.934 91.8839 196.75C91.8825 193.483 89.2481 190.834 86.0003 190.834Z" fill="black" fill-opacity="0.1"/>
<path d="M88.2063 207.104H83.7945C83.3886 207.104 83.059 207.435 83.059 207.844C83.059 208.253 83.3879 208.584 83.7945 208.584H88.2063C88.6122 208.584 88.9411 208.253 88.9411 207.844C88.9411 207.435 88.6122 207.104 88.2063 207.104Z" fill="black" fill-opacity="0.1"/>
<path d="M87.1029 210.062H84.897C84.4911 210.062 84.1615 210.394 84.1615 210.802C84.1615 211.211 84.4904 211.542 84.897 211.542H87.1029C87.5088 211.542 87.8378 211.211 87.8378 210.802C87.8378 210.394 87.5088 210.062 87.1029 210.062Z" fill="black" fill-opacity="0.1"/>
<path d="M86.0003 189.354C86.4062 189.354 86.7358 189.022 86.7358 188.614V185.656C86.7358 185.248 86.4069 184.916 86.0003 184.916C85.5937 184.916 85.2648 185.248 85.2648 185.656V188.615C85.2648 189.023 85.5937 189.354 86.0003 189.354Z" fill="black" fill-opacity="0.1"/>
<path d="M77.9116 196.01H74.9702C74.5643 196.01 74.2346 196.341 74.2346 196.75C74.2346 197.159 74.5636 197.49 74.9702 197.49H77.9116C78.3175 197.49 78.6471 197.158 78.6471 196.75C78.6471 196.342 78.3175 196.01 77.9116 196.01Z" fill="black" fill-opacity="0.1"/>
<path d="M80.5114 190.183L78.4319 188.092C78.1446 187.803 77.6794 187.803 77.3921 188.092C77.1048 188.381 77.1048 188.848 77.3921 189.137L79.4716 191.229C79.6156 191.374 79.8041 191.446 79.9919 191.446C80.1797 191.446 80.3681 191.373 80.5114 191.229C80.798 190.94 80.798 190.472 80.5114 190.183Z" fill="black" fill-opacity="0.1"/>
<path d="M94.6086 188.092C94.3213 187.803 93.8562 187.803 93.5682 188.092L91.4886 190.183C91.202 190.472 91.202 190.94 91.4886 191.229C91.6326 191.374 91.8211 191.446 92.0082 191.446C92.1966 191.446 92.3844 191.373 92.5284 191.229L94.6079 189.137C94.8952 188.848 94.8952 188.381 94.6086 188.092Z" fill="black" fill-opacity="0.1"/>
<path d="M97.0299 196.01H94.0891C93.6826 196.01 93.3529 196.341 93.3529 196.75C93.3529 197.159 93.6826 197.49 94.0891 197.49H97.0299C97.4357 197.49 97.7647 197.159 97.7647 196.75C97.7647 196.341 97.4357 196.01 97.0299 196.01Z" fill="black" fill-opacity="0.1"/>
</g>
<g clip-path="url(#clip7_4_743)">
<path d="M177.5 328.639C178.902 328.639 180.038 327.495 180.038 326.083C180.038 324.672 178.902 323.527 177.5 323.527C176.098 323.527 174.961 324.672 174.961 326.083C174.961 327.495 176.098 328.639 177.5 328.639Z" fill="black" fill-opacity="0.3"/>
<path d="M165.443 331.194C166.669 331.194 167.664 330.193 167.664 328.958C167.664 327.723 166.669 326.722 165.443 326.722C164.216 326.722 163.222 327.723 163.222 328.958C163.222 330.193 164.216 331.194 165.443 331.194Z" fill="black" fill-opacity="0.3"/>
<path d="M189.557 331.194C190.784 331.194 191.778 330.193 191.778 328.958C191.778 327.723 190.784 326.722 189.557 326.722C188.331 326.722 187.336 327.723 187.336 328.958C187.336 330.193 188.331 331.194 189.557 331.194Z" fill="black" fill-opacity="0.3"/>
<path d="M180.673 329.917H174.327C173.276 329.917 172.423 330.776 172.423 331.834V338.223C172.423 339.281 173.275 340.139 174.327 340.139L174.962 351H180.038L180.673 340.139C181.725 340.139 182.577 339.281 182.577 338.222V331.833C182.577 330.775 181.724 329.917 180.673 329.917Z" fill="black" fill-opacity="0.3"/>
<path d="M192.096 332.472H187.019C186.099 332.472 185.115 333.463 185.115 334.389V339.82C185.115 340.746 185.861 341.497 186.781 341.497L187.336 351H191.779L192.334 341.496C193.255 341.496 194 340.746 194 339.819V334.389C194 333.463 193.015 332.472 192.096 332.472Z" fill="black" fill-opacity="0.3"/>
<path d="M167.981 332.472H162.904C161.984 332.472 161 333.463 161 334.389V339.82C161 340.746 161.746 341.497 162.666 341.497L163.221 351H167.664L168.219 341.496C169.139 341.496 169.885 340.746 169.885 339.819V334.389C169.884 333.463 168.901 332.472 167.981 332.472Z" fill="black" fill-opacity="0.3"/>
<path d="M167.905 314.662L174.327 321.127L187.095 308.273C187.44 307.926 187.654 307.447 187.654 306.916C187.654 305.858 186.801 305 185.75 305C185.224 305 184.747 305.215 184.402 305.563L174.327 315.706L170.598 311.952C170.253 311.604 169.776 311.388 169.25 311.388C168.199 311.388 167.346 312.246 167.346 313.305C167.346 313.836 167.56 314.315 167.905 314.662Z" fill="black" fill-opacity="0.3"/>
</g>
<g clip-path="url(#clip8_4_743)">
<path d="M371.331 338.613L370.253 335.348C370.217 335.239 370.139 335.149 370.038 335.098C369.936 335.047 369.818 335.038 369.709 335.074L368.211 335.569C368.434 335.171 368.567 334.725 368.591 334.256C368.633 333.453 368.36 332.682 367.822 332.085C367.284 331.488 366.545 331.136 365.742 331.094C364.09 331.018 362.666 332.286 362.58 333.943C362.538 334.746 362.811 335.518 363.35 336.115C363.634 336.43 363.975 336.675 364.351 336.844L347.328 342.467C347.637 342.022 347.832 341.49 347.862 340.911C347.948 339.254 346.67 337.835 345.012 337.748C343.355 337.669 341.936 338.941 341.85 340.598C341.808 341.401 342.082 342.172 342.62 342.77C342.97 343.158 343.405 343.44 343.886 343.603L341.295 344.459C341.187 344.495 341.097 344.572 341.046 344.674C340.995 344.776 340.986 344.894 341.022 345.002L342.1 348.268C342.16 348.449 342.328 348.563 342.509 348.563C342.554 348.563 342.599 348.556 342.644 348.541L355.68 344.235L351.395 350.399C351.303 350.531 351.292 350.702 351.367 350.844C351.441 350.986 351.588 351.075 351.748 351.075C351.748 351.075 351.748 351.075 351.748 351.075L361.185 351.06C361.345 351.059 361.491 350.97 361.565 350.829C361.639 350.687 361.628 350.516 361.537 350.385L356.97 343.809L371.058 339.156C371.283 339.082 371.406 338.839 371.331 338.613ZM363.438 333.988C363.498 332.842 364.45 331.95 365.584 331.95C365.622 331.95 365.66 331.951 365.697 331.953C366.271 331.983 366.798 332.234 367.183 332.661C367.567 333.087 367.763 333.638 367.733 334.212C367.703 334.785 367.452 335.313 367.025 335.697C366.598 336.082 366.049 336.28 365.474 336.247C364.29 336.185 363.377 335.172 363.438 333.988ZM342.709 340.643C342.768 339.497 343.72 338.605 344.855 338.605C344.892 338.605 344.93 338.605 344.967 338.607C346.151 338.669 347.065 339.682 347.003 340.866C346.941 342.05 345.941 342.968 344.744 342.902C344.171 342.872 343.643 342.621 343.259 342.194C342.874 341.767 342.679 341.216 342.709 340.643ZM342.782 347.59L341.973 345.141L369.571 336.025L370.38 338.475L342.782 347.59Z" fill="black" fill-opacity="0.1"/>
<path d="M352.978 321.825H353.016C353.291 321.825 353.525 321.62 353.559 321.347C353.738 319.935 354.736 319.084 356.409 319.084C358.243 319.084 359.366 319.952 359.366 321.608C359.366 324.31 355.896 323.501 355.896 326.439V327.504C355.896 327.808 356.143 328.056 356.448 328.056C356.753 328.056 357 327.808 357 327.504V326.459C357 324.546 360.51 325.079 360.51 321.628C360.51 319.282 358.775 318 356.369 318C354.202 318 352.686 319.204 352.426 321.197C352.383 321.528 352.644 321.825 352.978 321.825Z" fill="black" fill-opacity="0.1"/>
<path d="M356.468 329.751C356.087 329.751 355.778 330.06 355.778 330.442V330.604C355.778 330.986 356.087 331.295 356.468 331.295C356.849 331.295 357.158 330.986 357.158 330.604V330.442C357.158 330.06 356.849 329.751 356.468 329.751Z" fill="black" fill-opacity="0.1"/>
</g>
<g clip-path="url(#clip9_4_743)">
<path d="M40.5972 254.05H38.6387V244.301H38.633C38.6321 243.756 38.2928 243.249 37.7461 243.068C37.0651 242.84 36.3225 243.209 36.0941 243.889C34.4364 248.843 27.0156 250.623 24.0508 250.786C22.3128 248.065 19.2639 246.251 15.791 246.251C10.3922 246.25 6 250.624 6 256C6 261.376 10.3922 265.75 15.7915 265.75C19.2648 265.75 22.3132 263.936 24.0513 261.214C27.0161 261.377 34.4369 263.158 36.0946 268.111C36.2769 268.656 36.7864 269 37.3335 269C37.4698 269 37.6094 268.979 37.7466 268.933C38.2932 268.751 38.6326 268.243 38.6335 267.699H38.6391V257.95H40.5976C41.6796 257.95 42.5557 257.077 42.5557 256C42.5552 254.924 41.6791 254.05 40.5972 254.05ZM15.7915 263.15C11.8322 263.15 8.61132 259.942 8.61132 256C8.61132 252.058 11.8327 248.85 15.7915 248.85C19.7513 248.85 22.9722 252.058 22.9722 256C22.9722 259.942 19.7513 263.15 15.7915 263.15ZM25.1934 258.7C25.4425 257.841 25.5835 256.937 25.5835 256C25.5835 255.063 25.4425 254.159 25.1934 253.3C28.3118 252.942 32.9855 251.574 36.0278 248.637V263.362C32.9855 260.425 28.3118 259.057 25.1934 258.7Z" fill="black" fill-opacity="0.2"/>
<path d="M19.7771 259.241L16.4443 255.62V251.126C16.4443 250.587 16.0053 250.151 15.4648 250.151C14.9243 250.151 14.4858 250.587 14.4858 251.126V256C14.4858 256.254 14.5855 256.483 14.7462 256.657L14.7434 256.659L18.3337 260.559L18.3365 260.556C18.5151 260.75 18.7699 260.875 19.0552 260.875C19.5957 260.875 20.0347 260.438 20.0347 259.9C20.0347 259.646 19.935 259.417 19.7743 259.244L19.7771 259.241Z" fill="black" fill-opacity="0.2"/>
<path d="M44.9756 251.64C44.7985 251.464 44.5536 251.355 44.2838 251.355C43.7428 251.355 43.3043 251.791 43.3043 252.33C43.3043 252.599 43.4138 252.843 43.591 253.019L43.5957 253.014C44.3646 253.779 44.8398 254.835 44.8398 256C44.8398 257.164 44.3642 258.22 43.5957 258.985L43.591 258.98C43.4138 259.157 43.3043 259.4 43.3043 259.669C43.3043 260.208 43.7428 260.644 44.2838 260.644C44.5531 260.644 44.7985 260.535 44.9756 260.359L44.9808 260.364C46.1036 259.245 46.7988 257.702 46.7988 256C46.7988 254.297 46.1036 252.753 44.9808 251.635L44.9756 251.64Z" fill="black" fill-opacity="0.2"/>
<path d="M49.3754 247.284C49.3754 247.284 49.3712 247.281 49.3702 247.279C49.3674 247.277 49.3622 247.272 49.3622 247.272C49.1855 247.104 48.9463 246.998 48.6826 246.998C48.1426 246.998 47.7036 247.435 47.7036 247.973C47.7036 248.236 47.8098 248.473 47.9795 248.649L47.979 248.649C49.8698 250.532 51.0416 253.132 51.0416 256C51.0416 258.867 49.8703 261.466 47.979 263.35L47.9795 263.351C47.8098 263.527 47.7036 263.764 47.7036 264.027C47.7036 264.565 48.1426 265.002 48.6826 265.002C48.9468 265.002 49.1855 264.896 49.3622 264.727C49.3622 264.727 49.3674 264.723 49.3702 264.721C49.3712 264.718 49.3754 264.716 49.3754 264.716C51.6135 262.481 53 259.398 53 256C53 252.602 51.6135 249.519 49.3754 247.284Z" fill="black" fill-opacity="0.2"/>
</g>
<path d="M162.375 236.906H157.688V235.734C157.688 234.224 156.464 233 154.954 233H154.953C153.443 233 152.219 234.224 152.219 235.734V236.906H139.719V235.734C139.719 234.224 138.495 233 136.984 233C135.474 233 134.25 234.224 134.25 235.734V236.906H129.562C128.7 236.906 128 237.606 128 238.469V243.156V266.594C128 267.457 128.7 268.156 129.562 268.156H162.375C163.238 268.156 163.938 267.457 163.938 266.594V243.156V238.469C163.938 237.606 163.238 236.906 162.375 236.906ZM162.375 266.594H129.562V243.938H162.375V266.594ZM129.562 238.469H134.289C134.48 239.792 135.608 240.812 136.984 240.812C138.361 240.812 139.488 239.792 139.679 238.469H152.258C152.449 239.792 153.577 240.812 154.953 240.812H154.954C156.33 240.812 157.458 239.792 157.649 238.469H162.375V242.375H129.562V238.469ZM135.812 236.906V235.734C135.812 235.088 136.338 234.562 136.984 234.562C137.631 234.562 138.156 235.088 138.156 235.734V236.906V237.688V238.078C138.156 238.216 138.128 238.346 138.084 238.469C137.923 238.922 137.493 239.25 136.984 239.25C136.476 239.25 136.046 238.922 135.884 238.469C135.841 238.346 135.812 238.216 135.812 238.078V237.688V236.906ZM153.781 236.906V235.734C153.781 235.088 154.307 234.562 154.954 234.562C155.6 234.562 156.126 235.088 156.126 235.734V236.906V237.688V238.078C156.126 238.216 156.098 238.346 156.054 238.469C155.892 238.922 155.462 239.25 154.953 239.25C154.445 239.25 154.015 238.922 153.853 238.469C153.809 238.346 153.781 238.216 153.781 238.078V237.688V236.906Z" fill="black" fill-opacity="0.4"/>
<path d="M153.781 254.094H158.469C159.332 254.094 160.031 253.394 160.031 252.531V247.844C160.031 246.981 159.332 246.281 158.469 246.281H153.781C152.918 246.281 152.219 246.981 152.219 247.844V252.531C152.219 253.394 152.918 254.094 153.781 254.094ZM158.469 252.531H153.781V247.844H158.469V252.531Z" fill="black" fill-opacity="0.4"/>
<path d="M143.625 254.094H148.312C149.175 254.094 149.875 253.394 149.875 252.531V247.844C149.875 246.981 149.175 246.281 148.312 246.281H143.625C142.762 246.281 142.062 246.981 142.062 247.844V252.531C142.062 253.394 142.762 254.094 143.625 254.094Z" fill="black" fill-opacity="0.4"/>
<path d="M133.469 254.094H138.156C139.019 254.094 139.719 253.394 139.719 252.531V247.844C139.719 246.981 139.019 246.281 138.156 246.281H133.469C132.606 246.281 131.906 246.981 131.906 247.844V252.531C131.906 253.394 132.606 254.094 133.469 254.094ZM138.156 252.531H133.469V247.844H138.156V252.531Z" fill="black" fill-opacity="0.4"/>
<path d="M143.625 264.25H148.312C149.175 264.25 149.875 263.55 149.875 262.688V258C149.875 257.137 149.175 256.438 148.312 256.438H143.625C142.762 256.438 142.062 257.137 142.062 258V262.688C142.062 263.55 142.762 264.25 143.625 264.25ZM148.312 262.688H143.625V258H148.312V262.688Z" fill="black" fill-opacity="0.4"/>
<path d="M153.781 264.25H158.469C159.332 264.25 160.031 263.55 160.031 262.688V258C160.031 257.137 159.332 256.438 158.469 256.438H153.781C152.918 256.438 152.219 257.137 152.219 258V262.688C152.219 263.55 152.918 264.25 153.781 264.25ZM158.469 262.688H153.781V258H158.469V262.688Z" fill="black" fill-opacity="0.4"/>
<path d="M133.469 264.25H138.156C139.019 264.25 139.719 263.55 139.719 262.688V258C139.719 257.137 139.019 256.438 138.156 256.438H133.469C132.606 256.438 131.906 257.137 131.906 258V262.688C131.906 263.55 132.606 264.25 133.469 264.25Z" fill="black" fill-opacity="0.4"/>
<defs>
<clipPath id="clip0_4_743">
<rect width="50" height="50" fill="white" transform="translate(410 53)"/>
</clipPath>
<clipPath id="clip1_4_743">
<rect width="99.818" height="100" fill="white" transform="translate(398 251)"/>
</clipPath>
<clipPath id="clip2_4_743">
<rect width="40" height="30" fill="white" transform="translate(136 85)"/>
</clipPath>
<clipPath id="clip3_4_743">
<rect width="100" height="100" fill="white" transform="translate(23 250)"/>
</clipPath>
<clipPath id="clip4_4_743">
<rect width="20" height="20" fill="white" transform="translate(419 194)"/>
</clipPath>
<clipPath id="clip5_4_743">
<rect width="65" height="65" fill="white" transform="translate(0 110)"/>
</clipPath>
<clipPath id="clip6_4_743">
<rect width="50" height="71" fill="white" transform="translate(61 179)"/>
</clipPath>
<clipPath id="clip7_4_743">
<rect width="33" height="46" fill="white" transform="translate(161 305)"/>
</clipPath>
<clipPath id="clip8_4_743">
<rect width="43" height="43" fill="white" transform="translate(335 308)"/>
</clipPath>
<clipPath id="clip9_4_743">
<rect width="47" height="26" fill="white" transform="translate(6 243)"/>
</clipPath>
</defs>
</svg>
